{
  "accessors": [
    {
      "bufferView": 2,
      "componentType": 5126,
      "count": 14389,
      "max": [
        4.3000011444091797,
        4,
        4.0999999046325684
      ],
      "min": [
        -4.7926192283630371,
        -4.8000001907348633,
        -0.15000000596046448
      ],
      "type": "VEC3"
    },
    {
      "bufferView": 2,
      "byteOffset": 172668,
      "componentType": 5126,
      "count": 14389,
      "max": [
        1,
        1,
        1
      ],
      "min": [
        -1,
        -1,
        -1
      ],
      "type": "VEC3"
    },
    {
      "bufferView": 3,
      "componentType": 5126,
      "count": 14389,
      "max": [
        1,
        1,
        1,
        1
      ],
      "min": [
        -1,
        -1,
        -1,
        -1
      ],
      "type": "VEC4"
    },
    {
      "bufferView": 1,
      "componentType": 5126,
      "count": 14389,
      "max": [
        0.97224599123001099,
        0.9852910041809082
      ],
      "min": [
        0,
        0
      ],
      "type": "VEC2"
    },
    {
      "bufferView": 0,
      "componentType": 5125,
      "count": 21609,
      "max": [
        14388
      ],
      "min": [
        0
      ],
      "type": "SCALAR"
    },
    {
      "bufferView": 2,
      "byteOffset": 345336,
      "componentType": 5126,
      "count": 28,
      "max": [
        2.6352128982543945,
        3.0085339546203613,
        1.1882450580596924
      ],
      "min": [
        0.44229999184608459,
        0.78165799379348755,
        0.71564102172851562
      ],
      "type": "VEC3"
    },
    {
      "bufferView": 2,
      "byteOffset": 345672,
      "componentType": 5126,
      "count": 28,
      "max": [
        0.92882281541824341,
        0.75644153356552124,
        0.72960245609283447
      ],
      "min": [
        -0.81652140617370605,
        -0.89142751693725586,
        -0.62551641464233398
      ],
      "type": "VEC3"
    },
    {
      "bufferView": 3,
      "byteOffset": 230224,
      "componentType": 5126,
      "count": 28,
      "max": [
        0.89093631505966187,
        0.96475666761398315,
        0.84898173809051514,
        1
      ],
      "min": [
        -0.69486159086227417,
        -0.91852188110351562,
        -0.51590567827224731,
        1
      ],
      "type": "VEC4"
    },
    {
      "bufferView": 1,
      "byteOffset": 115112,
      "componentType": 5126,
      "count": 28,
      "max": [
        0.31473299860954285,
        0.98098498582839966
      ],
      "min": [
        0.11083900183439255,
        0.77093201875686646
      ],
      "type": "VEC2"
    },
    {
      "bufferView": 0,
      "byteOffset": 86436,
      "componentType": 5125,
      "count": 42,
      "max": [
        27
      ],
      "min": [
        0
      ],
      "type": "SCALAR"
    }
  ],
  "asset": {
    "extras": {
      "author": "Nika (https://sketchfab.com/nikam12345678)",
      "license": "CC-BY-4.0 (http://creativecommons.org/licenses/by/4.0/)",
      "source": "https://sketchfab.com/3d-models/low-poly-bedroom-c0e9eb2ad16d4520a15977bcb940777e",
      "title": "Low Poly Bedroom"
    },
    "generator": "Sketchfab-5.68.0",
    "version": "2.0"
  },
  "bufferViews": [
    {
      "buffer": 0,
      "byteLength": 86604,
      "byteOffset": 0,
      "name": "floatBufferViews",
      "target": 34963
    },
    {
      "buffer": 0,
      "byteLength": 115336,
      "byteOffset": 86604,
      "byteStride": 8,
      "name": "floatBufferViews",
      "target": 34962
    },
    {
      "buffer": 0,
      "byteLength": 346008,
      "byteOffset": 201940,
      "byteStride": 12,
      "name": "floatBufferViews",
      "target": 34962
    },
    {
      "buffer": 0,
      "byteLength": 230672,
      "byteOffset": 547948,
      "byteStride": 16,
      "name": "floatBufferViews",
      "target": 34962
    }
  ],
  "buffers": [
    {
      "byteLength": 778620,
      "uri": "scene.bin"
    }
  ],
  "images": [
    {
      "uri": "textures/Interior_Mat_baseColor.png"
    }
  ],
  "materials": [
    {
      "doubleSided": true,
      "name": "Interior_Mat",
      "pbrMetallicRoughness": {
        "baseColorFactor": [
          1,
          1,
          1,
          1
        ],
        "baseColorTexture": {
          "index": 0,
          "texCoord": 0
        },
        "metallicFactor": 0,
        "roughnessFactor": 0.59999999999999998
      }
    }
  ],
  "meshes": [
    {
      "primitives": [
        {
          "attributes": {
            "NORMAL": 1,
            "POSITION": 0,
            "TANGENT": 2,
            "TEXCOORD_0": 3
          },
          "indices": 4,
          "material": 0,
          "mode": 4
        }
      ]
    },
    {
      "primitives": [
        {
          "attributes": {
            "NORMAL": 6,
            "POSITION": 5,
            "TANGENT": 7,
            "TEXCOORD_0": 8
          },
          "indices": 9,
          "material": 0,
          "mode": 4
        }
      ]
    }
  ],
  "nodes": [
    {
      "children": [
        1
      ],
      "name": "RootNode (gltf orientation matrix)",
      "rotation": [
        -0.70710678118654746,
        -0,
        -0,
        0.70710678118654757
      ]
    },
    {
      "children": [
        2
      ],
      "name": "RootNode (model correction matrix)"
    },
    {
      "children": [
        3,
        4
      ],
      "name": "LowPoly Room.obj.cleaner.materialmerger.gles"
    },
    {
      "mesh": 0,
      "name": ""
    },
    {
      "mesh": 1,
      "name": ""
    }
  ],
  "samplers": [
    {
      "magFilter": 9729,
      "minFilter": 9987,
      "wrapS": 10497,
      "wrapT": 10497
    }
  ],
  "scene": 0,
  "scenes": [
    {
      "name": "OSG_Scene",
      "nodes": [
        0
      ]
    }
  ],
  "textures": [
    {
      "sampler": 0,
      "source": 0
    }
  ]
}

